<svg width="391" height="357" viewBox="0 0 391 357" fill="none" xmlns="http://www.w3.org/2000/svg">
<rect x="0.855469" y="0.774902" width="390" height="356" rx="178" fill="#F5F5F5"/>
<path d="M141.334 162.847C141.334 168.052 140.139 172.831 137.75 177.183C135.361 181.45 131.691 184.906 126.742 187.551C121.793 190.196 115.649 191.519 108.31 191.519H94.742V223.775H72.854V133.919H108.31C115.478 133.919 121.537 135.156 126.486 137.631C131.435 140.106 135.147 143.519 137.622 147.871C140.097 152.223 141.334 157.215 141.334 162.847ZM106.646 174.111C110.827 174.111 113.942 173.13 115.99 171.167C118.038 169.204 119.062 166.431 119.062 162.847C119.062 159.263 118.038 156.49 115.99 154.527C113.942 152.564 110.827 151.583 106.646 151.583H94.742V174.111H106.646ZM221.465 223.775L213.145 215.711C204.868 222.026 194.969 225.183 183.449 225.183C176.537 225.183 170.521 224.074 165.401 221.855C160.281 219.551 156.313 216.351 153.497 212.255C150.766 208.074 149.401 203.21 149.401 197.663C149.401 192.031 150.894 186.954 153.881 182.431C156.953 177.823 161.518 174.068 167.577 171.167C165.358 168.436 163.78 165.834 162.841 163.359C161.902 160.799 161.433 158.026 161.433 155.039C161.433 150.772 162.542 146.89 164.761 143.391C166.98 139.892 170.18 137.162 174.361 135.199C178.628 133.151 183.662 132.127 189.465 132.127C195.353 132.127 200.345 133.194 204.441 135.327C208.537 137.46 211.609 140.319 213.657 143.903C215.705 147.487 216.644 151.412 216.473 155.679H195.865C195.95 153.375 195.353 151.626 194.073 150.431C192.878 149.151 191.257 148.511 189.209 148.511C187.161 148.511 185.454 149.108 184.089 150.303C182.724 151.498 182.041 153.034 182.041 154.911C182.041 156.703 182.596 158.58 183.705 160.543C184.9 162.506 186.734 164.767 189.209 167.327L211.097 188.703C211.268 188.276 211.481 187.764 211.737 187.167C212.078 186.57 212.42 185.887 212.761 185.119L217.497 177.055H239.385L233.241 188.191C230.937 193.226 228.292 198.004 225.305 202.527L246.937 223.775H221.465ZM184.473 207.519C190.19 207.519 195.268 205.898 199.705 202.655L179.737 183.327C173.593 186.484 170.521 190.751 170.521 196.127C170.521 199.37 171.758 202.1 174.233 204.319C176.793 206.452 180.206 207.519 184.473 207.519ZM323.334 162.847C323.334 168.052 322.139 172.831 319.75 177.183C317.361 181.45 313.691 184.906 308.742 187.551C303.793 190.196 297.649 191.519 290.31 191.519H276.742V223.775H254.854V133.919H290.31C297.478 133.919 303.537 135.156 308.486 137.631C313.435 140.106 317.147 143.519 319.622 147.871C322.097 152.223 323.334 157.215 323.334 162.847ZM288.646 174.111C292.827 174.111 295.942 173.13 297.99 171.167C300.038 169.204 301.062 166.431 301.062 162.847C301.062 159.263 300.038 156.49 297.99 154.527C295.942 152.564 292.827 151.583 288.646 151.583H276.742V174.111H288.646Z" fill="black"/>
</svg>
